<svg xmlns="http://www.w3.org/2000/svg" viewBox="0 0 200 200"><rect width="200" height="200" fill="none"/><path d="M0,33.2V1.12A1.12,1.12,0,0,1,1.12,0H4.306a1.12,1.12,0,0,1,1.12,1.12V33.2a1.12,1.12,0,0,1-1.12,1.12H1.12A1.12,1.12,0,0,1,0,33.2Zm7.8-5.11a11.575,11.575,0,0,1-.935-4.722A11.575,11.575,0,0,1,7.8,18.647a11.036,11.036,0,0,1,2.532-3.627,11.16,11.16,0,0,1,3.787-2.327,13.6,13.6,0,0,1,9.307,0,11.165,11.165,0,0,1,3.787,2.327,11.05,11.05,0,0,1,2.532,3.627,11.592,11.592,0,0,1,.935,4.722,11.592,11.592,0,0,1-.935,4.722,11.056,11.056,0,0,1-2.532,3.627,11.17,11.17,0,0,1-3.787,2.327,13.6,13.6,0,0,1-9.307,0,11.166,11.166,0,0,1-3.787-2.327A11.042,11.042,0,0,1,7.8,28.091Zm4.539-4.722a7.1,7.1,0,0,0,.434,2.464,6.155,6.155,0,0,0,1.277,2.1,6.472,6.472,0,0,0,9.444,0,6.194,6.194,0,0,0,1.277-2.1,7.22,7.22,0,0,0,0-4.927,6.21,6.21,0,0,0-1.277-2.1,6.471,6.471,0,0,0-9.444,0,6.171,6.171,0,0,0-1.277,2.1A7.11,7.11,0,0,0,12.344,23.369Zm23.085,8.349a11.16,11.16,0,0,0,3.787,2.327,13.145,13.145,0,0,0,4.653.821,11.28,11.28,0,0,0,1.734-.16,13.324,13.324,0,0,0,2.1-.525,12.888,12.888,0,0,0,2.167-.958,8.832,8.832,0,0,0,.94-.6,1.121,1.121,0,0,0,.16-1.668l-2.045-2.2a1.114,1.114,0,0,0-1.543-.092,5.03,5.03,0,0,1-1.138.748,5.418,5.418,0,0,1-2.373.525,6.252,6.252,0,0,1-4.722-2.008,6.163,6.163,0,0,1-1.277-2.1,7.22,7.22,0,0,1,0-4.927,6.179,6.179,0,0,1,1.277-2.1A6.251,6.251,0,0,1,43.869,16.8a4.316,4.316,0,0,1,2.144.593,8.082,8.082,0,0,1,1.257.886,1.121,1.121,0,0,0,1.52-.058L51,16.007a1.123,1.123,0,0,0-.067-1.647,9.452,9.452,0,0,0-2.847-1.689,11.925,11.925,0,0,0-4.22-.8,13.14,13.14,0,0,0-4.653.821,11.155,11.155,0,0,0-3.787,2.327A11.021,11.021,0,0,0,32.9,18.647a11.576,11.576,0,0,0-.935,4.722,11.576,11.576,0,0,0,.935,4.722A11.026,11.026,0,0,0,35.429,31.718Zm18.028-.548a5.824,5.824,0,0,1-.685-2.874,6.622,6.622,0,0,1,.639-3.034,6.232,6.232,0,0,1,1.711-2.1,8.682,8.682,0,0,1,2.486-1.345,17.062,17.062,0,0,1,2.943-.751,26.189,26.189,0,0,1,3.08-.315c1.034-.046,2.007-.06,2.92-.06h1.463v-.61A3.591,3.591,0,0,0,66.551,17,6.132,6.132,0,0,0,62.9,15.978a8.475,8.475,0,0,0-5.108,1.662,1.118,1.118,0,0,1-1.459-.107L55.011,16.21a1.119,1.119,0,0,1,.075-1.653,10.537,10.537,0,0,1,3.365-1.864,15.7,15.7,0,0,1,5.041-.821,12.709,12.709,0,0,1,3.923.525,8.626,8.626,0,0,1,2.644,1.346,5.943,5.943,0,0,1,1.615,1.893,8.764,8.764,0,0,1,.812,2.167,11.915,11.915,0,0,1,.3,2.121c.03.684.026,1.285.026,1.8V33.2a1.12,1.12,0,0,1-1.12,1.12H69.133a1.12,1.12,0,0,1-1.12-1.12V31.42h-.231a6.824,6.824,0,0,1-3.011,2.659,9.426,9.426,0,0,1-4.015.788,10.666,10.666,0,0,1-2.943-.41,7.97,7.97,0,0,1-2.555-1.232A6.316,6.316,0,0,1,53.456,31.171Zm4.791-3.285a2.329,2.329,0,0,0,.343,1.3,3.094,3.094,0,0,0,.89.89,3.723,3.723,0,0,0,1.234.525,6.005,6.005,0,0,0,1.373.16,5.716,5.716,0,0,0,4.183-1.346,4.974,4.974,0,0,0,1.363-3.673V25.6a1.12,1.12,0,0,0-1.12-1.12h-.055c-.761,0-1.612.046-2.555.106a13.439,13.439,0,0,0-2.669.448,6.107,6.107,0,0,0-2.121,1A2.191,2.191,0,0,0,58.247,27.886ZM78.88,0H75.442a1.12,1.12,0,0,0-1.12,1.12V33.2a1.12,1.12,0,0,0,1.12,1.12H78.88A1.12,1.12,0,0,0,80,33.2V1.12A1.12,1.12,0,0,0,78.88,0ZM73.014,57.918H68.792a1.12,1.12,0,0,1-1.06-.757L62.413,41.64h-.1l-4.7,15.483a1.12,1.12,0,0,1-1.072.795H52.1a1.12,1.12,0,0,1-1.059-.755L46.882,45.085a.01.01,0,0,1,0,.007q.037.471.038.951A12.6,12.6,0,0,1,34.057,58.358a12.663,12.663,0,0,1-12.8-11.089l-.063,0V56.8a1.12,1.12,0,0,1-1.12,1.12h-3.89a1.12,1.12,0,0,1-1.12-1.12V43.7H15.06c0-.088.008-.176.008-.264a4.545,4.545,0,0,0-9.089,0c0,.089,0,.177.008.264H5.979V56.8a1.12,1.12,0,0,1-1.12,1.12H1.12A1.12,1.12,0,0,0,0,59.038V78.88A1.12,1.12,0,0,0,1.12,80H78.88A1.12,1.12,0,0,0,80,78.88V39.809L74.074,57.16A1.12,1.12,0,0,1,73.014,57.918ZM29.081,41.043a6.618,6.618,0,0,0-1.37,2.251,7.625,7.625,0,0,0-.465,2.642,7.839,7.839,0,0,0,.051.883,7.566,7.566,0,0,0,.414,1.759,6.6,6.6,0,0,0,1.37,2.251,6.941,6.941,0,0,0,10.13,0,6.643,6.643,0,0,0,1.37-2.251,7.644,7.644,0,0,0,.465-2.642c0-.071,0-.141,0-.212a7.634,7.634,0,0,0-.46-2.431,6.66,6.66,0,0,0-1.37-2.251,6.941,6.941,0,0,0-10.13,0Zm21.857-.693,3.391,10.628L57.719,40.35a1.12,1.12,0,0,0-1.067-1.46H52A1.12,1.12,0,0,0,50.938,40.35Zm17.63-1.46A1.12,1.12,0,0,0,67.5,40.35l3.391,10.628L74.282,40.35a1.12,1.12,0,0,0-1.067-1.46H68.567Z" transform="translate(60 60)" fill="#52cd65" opacity="0.5"/></svg>
