
<svg width="42px" height="46px" viewBox="0 0 42 46" version="1.1" xmlns="http://www.w3.org/2000/svg" xmlns:xlink="http://www.w3.org/1999/xlink">
  <g id="Symbols" stroke="none" stroke-width="1" fill="none" fill-rule="evenodd">
    <g id="Player/Next-Icon" transform="translate(-79.000000, -1.000000)">
      <g id="Group-3" transform="translate(100.000000, 24.000000) scale(-1, 1) translate(-100.000000, -24.000000) translate(79.000000, 0.000000)">
        <g id="icon/chapter-copy">
          <g id="icon/chapter/prev" transform="translate(1.828571, 0.000000)">
            <path d="M37.0548614,25.3792997 L2.45801438,46.499468 C1.69624816,46.9644997 0.701731956,46.7239488 0.236700255,45.9621826 C0.0819001689,45.7086053 3.57618937e-15,45.4172617 0,45.1201682 L0,2.87983178 C5.56835049e-16,1.98733962 0.723507844,1.26383178 1.616,1.26383178 C1.91309343,1.26383178 2.20443709,1.34573195 2.45801438,1.50053203 L37.0548614,22.6207003 C37.8166276,23.085732 38.0571784,24.0802482 37.5921467,24.8420144 C37.4583005,25.0612673 37.2741143,25.2454535 37.0548614,25.3792997 Z" id="Triangle" fill="#2C2C2C" transform="translate(19.657143, 24.000000) scale(-1, 1) translate(-19.657143, -24.000000) "></path>
            <path d="M0,44 L0,4" id="Line-2-Copy" stroke="#2C2C2C" stroke-width="4.848" stroke-linecap="round" stroke-linejoin="round" transform="translate(0.457143, 24.000000) scale(-1, 1) translate(-0.457143, -24.000000) "></path>
          </g>
        </g>
      </g>
    </g>
  </g>
</svg>
