
<svg width="70px" height="70px" viewBox="0 0 70 70" version="1.1" xmlns="http://www.w3.org/2000/svg" xmlns:xlink="http://www.w3.org/1999/xlink">
  <defs>
    <polygon id="path-1" points="0 0 70 0 70 34.99125 0 34.99125"></polygon>
  </defs>
  <g id="Symbols" stroke="none" stroke-width="1" fill="none" fill-rule="evenodd">
    <g id="Icons/Logo">
      <g id="190514_LocalNow_Logo_v5_Green–NoBG">
        <polygon id="Fill-1" fill="#2AAD79" points="0 30.0943125 4.81133333 30.0943125 4.81133333 0 0 0"></polygon>
        <path d="M11.1731667,18.3278958 C11.4260417,17.6343125 11.7996667,17.0210833 12.2936042,16.4870417 C12.7866667,15.9535833 13.3802083,15.5265833 14.0742292,15.2063333 C14.7678125,14.8862292 15.554875,14.72625 16.4354167,14.72625 C17.3156667,14.72625 18.1022917,14.8862292 18.7963125,15.2063333 C19.4898958,15.5265833 20.0834375,15.9535833 20.577375,16.4870417 C21.0704375,17.0210833 21.443625,17.6343125 21.6978125,18.3278958 C21.9509792,19.0219167 22.078,19.7423333 22.078,20.489 C22.078,21.2361042 21.9509792,21.956375 21.6978125,22.6498125 C21.443625,23.3439792 21.0704375,23.9573542 20.577375,24.4905208 C20.0834375,25.0245625 19.4898958,25.4509792 18.7963125,25.7712292 C18.1022917,26.0913333 17.3156667,26.2514583 16.4354167,26.2514583 C15.554875,26.2514583 14.7678125,26.0913333 14.0742292,25.7712292 C13.3802083,25.4509792 12.7866667,25.0245625 12.2936042,24.4905208 C11.7996667,23.9573542 11.4260417,23.3439792 11.1731667,22.6498125 C10.9189792,21.956375 10.7925417,21.2361042 10.7925417,20.489 C10.7925417,19.7423333 10.9189792,19.0219167 11.1731667,18.3278958 Z M9.03189583,27.8121667 C9.96566667,28.6927083 11.0726875,29.3727292 12.3533958,29.8531042 C13.6339583,30.3333333 14.9945833,30.573375 16.4354167,30.573375 C17.8758125,30.573375 19.2365833,30.3333333 20.5171458,29.8531042 C21.7978542,29.3727292 22.9044375,28.6927083 23.8386458,27.8121667 C24.772125,26.931625 25.512375,25.871125 26.0596875,24.6308125 C26.6059792,23.3902083 26.88,22.0096042 26.88,20.489 C26.88,18.96825 26.6059792,17.5876458 26.0596875,16.3470417 C25.512375,15.1064375 24.772125,14.0459375 23.8386458,13.1655417 C22.9044375,12.2851458 21.7978542,11.6048333 20.5171458,11.12475 C19.2365833,10.644375 17.8758125,10.4043333 16.4354167,10.4043333 C14.9945833,10.4043333 13.6339583,10.644375 12.3533958,11.12475 C11.0726875,11.6048333 9.96566667,12.2851458 9.03189583,13.1655417 C8.09797917,14.0459375 7.35772917,15.1064375 6.81085417,16.3470417 C6.2636875,17.5876458 5.99039583,18.96825 5.99039583,20.489 C5.99039583,22.0096042 6.2636875,23.3902083 6.81085417,24.6308125 C7.35772917,25.871125 8.09797917,26.931625 9.03189583,27.8121667 L9.03189583,27.8121667 Z" id="Fill-2" fill="#2AAD79"></path>
        <path d="M31.0413542,27.8121667 C31.9748333,28.6927083 33.0822917,29.3727292 34.363,29.8531042 C35.6435625,30.3333333 37.00375,30.573375 38.4447292,30.573375 C38.8711458,30.573375 39.3780625,30.5265625 39.965625,30.4332292 C40.5517292,30.3394583 41.166125,30.1861875 41.8064792,29.9729792 C42.4463958,29.7597708 43.0800417,29.479625 43.7069792,29.1326875 C44.3334792,28.7863333 44.8876458,28.3724583 45.367875,27.8920833 L42.16625,24.4507083 C41.7124167,25.0378333 41.166125,25.4848125 40.5259167,25.7912083 C39.8854167,26.0981875 39.1913958,26.2514583 38.4447292,26.2514583 C37.5644792,26.2514583 36.777125,26.0913333 36.0835417,25.7712292 C35.389375,25.4509792 34.7964167,25.0245625 34.3027708,24.4905208 C33.8088333,23.9573542 33.4355,23.3439792 33.1823333,22.6498125 C32.9285833,21.956375 32.8022917,21.2361042 32.8022917,20.489 C32.8022917,19.7423333 32.9285833,19.0219167 33.1823333,18.3278958 C33.4355,17.6343125 33.8088333,17.0210833 34.3027708,16.4870417 C34.7964167,15.9535833 35.389375,15.5265833 36.0835417,15.2063333 C36.777125,14.8862292 37.5644792,14.72625 38.4447292,14.72625 C39.0850833,14.72625 39.7114375,14.9000833 40.3253958,15.2464375 C40.9389167,15.5935208 41.5263333,16.060625 42.086625,16.6470208 L45.4079792,13.3255208 C44.4737708,12.3119792 43.3871667,11.5717292 42.1462708,11.104625 C40.9059583,10.6381042 39.671625,10.4043333 38.4447292,10.4043333 C37.00375,10.4043333 35.6435625,10.644375 34.363,11.12475 C33.0822917,11.6048333 31.9748333,12.2851458 31.0413542,13.1655417 C30.1071458,14.0459375 29.3668958,15.1064375 28.8204583,16.3470417 C28.2732917,17.5876458 28,18.96825 28,20.489 C28,22.0096042 28.2732917,23.3902083 28.8204583,24.6308125 C29.3668958,25.871125 30.1071458,26.931625 31.0413542,27.8121667" id="Fill-3" fill="#2AAD79"></path>
        <path d="M51.8169167,22.8297708 C52.3235417,22.4433125 52.9433333,22.1496042 53.6776042,21.949375 C54.411,21.7494375 55.1910625,21.5861042 56.0185208,21.5321458 C56.8453958,21.4792083 57.5926458,21.4150417 58.2596875,21.4150417 L59.3353542,21.4150417 L59.3353542,22.5698958 C59.3353542,23.930375 58.904125,25.0045833 58.1175,25.7912083 C57.3298542,26.5784167 56.0905625,26.9717292 54.4368125,26.9717292 C54.0366458,26.9717292 53.6268542,26.9256458 53.2266875,26.8315833 C52.8266667,26.7385417 52.4617917,26.5852708 52.1413958,26.3714792 C51.8215833,26.1582708 51.5589375,25.89825 51.359,25.5909792 C51.1589167,25.2847292 51.0572708,24.9046875 51.0572708,24.4507083 C51.0572708,23.757125 51.3095625,23.2168125 51.8169167,22.8297708 Z M48.4351875,29.1326875 C49.088375,29.6130625 49.835625,29.9729792 50.6759167,30.2133125 C51.5163542,30.4533542 52.3769167,30.573375 53.2570208,30.573375 C54.537875,30.573375 55.7113958,30.373875 56.77875,29.8805208 C57.845375,29.3871667 58.7259167,28.6792917 59.4199375,27.5471875 L59.6185625,27.5471875 L59.6185625,30.0943125 L63.8637708,30.0943125 L63.8637708,19.0480208 C63.8637708,18.5947708 63.8493333,18.0677292 63.8230833,17.4674792 C63.7961042,16.8672292 63.7007292,16.247 63.5544583,15.6066458 C63.4076042,14.9662917 63.1712083,14.3329375 62.8378333,13.7058542 C62.5040208,13.0792083 62.0325417,12.5253333 61.4191667,12.0451042 C60.8052083,11.5647292 60.0324375,11.1714167 59.0991042,10.8645833 C58.1648958,10.5581875 57.0185,10.4043333 55.6577292,10.4043333 C54.1372708,10.4043333 52.6628958,10.644375 51.2359167,11.12475 C49.8086458,11.6048333 48.5613333,12.3921875 47.4947083,13.4857917 L50.0157292,16.0069583 C50.6559375,15.3934375 51.4161667,14.9063542 52.2968542,14.5461458 C53.1771042,14.1859375 54.1238542,14.0058333 55.1382708,14.0058333 C56.4188333,14.0058333 57.5114167,14.3061042 58.3387292,14.9063542 C59.1653125,15.50675 59.6185625,16.4069792 59.6185625,17.6074792 L59.6185625,18.2075833 L58.3394583,18.2075833 C57.5394167,18.2075833 56.685125,18.1876042 55.7784792,18.2277083 C54.87125,18.2678125 53.9705833,18.3416042 53.0770625,18.487875 C52.1829583,18.634875 51.3228333,18.844875 50.4959583,19.1381458 C49.6690833,19.4321458 48.9416667,19.8205 48.3153125,20.3137083 C47.6879375,20.8077917 47.187875,21.4185417 46.81425,22.1520833 C46.4404792,22.8862083 46.2539583,23.7715625 46.2539583,24.8119375 C46.2539583,25.7723958 46.4544792,26.6121042 46.8545,27.3325208 C47.2545208,28.0529375 47.7809792,28.6526042 48.4351875,29.1326875 L48.4351875,29.1326875 Z" id="Fill-4" fill="#2AAD79"></path>
        <polygon id="Fill-5" fill="#2AAD79" points="65.1886667 30.0943125 70 30.0943125 70 0 65.1886667 0"></polygon>
        <path d="M25.4095625,36.9457083 C24.8603542,37.5358958 24.4450208,38.2134375 24.1638542,38.9799375 C23.8812292,39.746875 23.7406458,40.5429792 23.7406458,41.3679583 C23.7406458,42.1936667 23.8812292,42.9894792 24.1638542,43.7559792 C24.4450208,44.5229167 24.8603542,45.20075 25.4095625,45.7899167 C25.9578958,46.3799583 26.6176458,46.8512917 27.3893958,47.2049375 C28.1604167,47.558875 29.0355625,47.7359167 30.0145417,47.7359167 C30.9930833,47.7359167 31.8676458,47.558875 32.6393958,47.2049375 C33.4104167,46.8512917 34.0703125,46.3799583 34.6195208,45.7899167 C35.1677083,45.20075 35.58275,44.5229167 35.865375,43.7559792 C36.1468333,42.9894792 36.2878542,42.1936667 36.2878542,41.3679583 C36.2878542,40.5429792 36.1468333,39.746875 35.865375,38.9799375 C35.58275,38.2134375 35.1677083,37.5358958 34.6195208,36.9457083 C34.0703125,36.3563958 33.4104167,35.8843333 32.6393958,35.5305417 C31.8676458,35.17675 30.9930833,35 30.0145417,35 C29.0355625,35 28.1604167,35.17675 27.3893958,35.5305417 C26.6176458,35.8843333 25.9578958,36.3563958 25.4095625,36.9457083" id="Fill-6" fill="#2AAD79"></path>
        <polyline id="Fill-7" fill="#2AAD79" points="47.8489375 46.2538125 50.9683125 35 44.3016875 35 47.8489375 46.2538125"></polyline>
        <g id="Group-11" transform="translate(0.000000, 35.000000)">
          <mask id="mask-2" fill="white">
            <use xlink:href="#path-1"></use>
          </mask>
          <g id="Clip-9"></g>
          <polyline id="Fill-8" fill="#2AAD79" mask="url(#mask-2)" points="61.6662083 11.2538125 65.2136042 0 58.5469792 0 61.6662083 11.2538125"></polyline>
          <path d="M63.3583125,17.3583958 L58.8298958,17.3583958 L54.7575,3.97789583 L50.6853958,17.3583958 L44.9621667,17.3583958 L41.5320208,7.34052083 C41.444375,8.44827083 41.2075417,9.5344375 40.8225417,10.58225 C40.2976875,12.0068958 39.5119375,13.2874583 38.4870208,14.3889375 C37.4679375,15.4841458 36.241625,16.3648333 34.8413333,17.0072292 C33.3774583,17.6786458 31.7534583,18.018875 30.0145417,18.018875 C28.2744583,18.018875 26.6500208,17.6783542 25.1873125,17.0072292 C23.7858542,16.3646875 22.5586667,15.4829792 21.539875,14.3864583 C21.375375,14.2098542 21.2180208,14.0281458 21.0659167,13.8426458 C19.9209792,12.5305833 19.0614375,10.962875 18.5848542,9.23620833 L18.5848542,17.3583958 L13.39625,17.3583958 L13.39625,4.7158125 C13.39625,2.50147917 11.6011875,0.706416667 9.38685417,0.706416667 C7.17252083,0.706416667 5.3773125,2.50147917 5.3773125,4.7158125 L5.3773125,17.3583958 L0,17.3583958 L0,35 L70,35 L70,1.45045833 L64.553125,17.3583958 L63.3583125,17.3583958" id="Fill-10" fill="#2AAD79" mask="url(#mask-2)"></path>
        </g>
      </g>
    </g>
  </g>
</svg>
