<svg xmlns="http://www.w3.org/2000/svg" width="76" height="67.77" viewBox="0 0 76 67.77">
  <g id="Group_1674" data-name="Group 1674" transform="translate(-1744 -820)">
    <g id="Subtraction_16" data-name="Subtraction 16" transform="translate(-3994 -9227)" fill="none">
      <path d="M5743,10047h66a5,5,0,0,1,5,5v42a5,5,0,0,1-5,5h-17.515l-29.5,15.77V10099H5743a5,5,0,0,1-5-5v-42A5,5,0,0,1,5743,10047Z" stroke="none"/>
      <path d="M 5743 10052 L 5743 10094 L 5761.9892578125 10094 L 5766.9892578125 10094 L 5766.9892578125 10099 L 5766.9892578125 10106.4267578125 L 5789.12744140625 10094.5908203125 L 5790.23193359375 10094 L 5791.48486328125 10094 L 5809 10094 L 5809 10052 L 5743 10052 M 5743 10047 L 5809 10047 C 5811.76123046875 10047 5814 10049.23828125 5814 10052 L 5814 10094 C 5814 10096.76171875 5811.76123046875 10099 5809 10099 L 5791.48486328125 10099 L 5761.9892578125 10114.76953125 L 5761.9892578125 10099 L 5743 10099 C 5740.23876953125 10099 5738 10096.76171875 5738 10094 L 5738 10052 C 5738 10049.23828125 5740.23876953125 10047 5743 10047 Z" stroke="none" fill="#fff"/>
    </g>
    <g id="Group_1672" data-name="Group 1672" transform="translate(1585.021 548.798)">
      <g id="Group_1672-2" data-name="Group 1672" transform="translate(178.18 287.36)">
        <path id="Path_3013" data-name="Path 3013" d="M193.831,299.684a1.423,1.423,0,0,1,.329,1.119,6.9,6.9,0,0,1-2.331,4.456,8.18,8.18,0,0,1-5.537,1.833,7.465,7.465,0,0,1-5.969-2.576,10.16,10.16,0,0,1-2.143-6.787v-1.062a11.343,11.343,0,0,1,.978-4.813,7.5,7.5,0,0,1,2.876-3.328,8.817,8.817,0,0,1,9.776.677,7.333,7.333,0,0,1,2.359,4.54,1.4,1.4,0,0,1-.32,1.128,1.431,1.431,0,0,1-1.09.508h-2.576a1.439,1.439,0,0,1-1.429-1.26,2.469,2.469,0,0,0-.6-1.438,2.656,2.656,0,0,0-1.8-.5,2.1,2.1,0,0,0-1.908.874,6.418,6.418,0,0,0-.752,3.45v1.307a6.655,6.655,0,0,0,.705,3.6,2.014,2.014,0,0,0,1.9.874,2.735,2.735,0,0,0,1.842-.5,2.362,2.362,0,0,0,.6-1.372,1.417,1.417,0,0,1,1.4-1.231h2.613A1.418,1.418,0,0,1,193.831,299.684Z" transform="translate(-178.18 -287.36)" fill="#fff"/>
      </g>
      <g id="Group_1673" data-name="Group 1673" transform="translate(199.8 287.36)">
        <path id="Path_3014" data-name="Path 3014" d="M217.312,299.684a1.4,1.4,0,0,1,.338,1.119,6.945,6.945,0,0,1-2.331,4.456,8.2,8.2,0,0,1-5.537,1.833,7.465,7.465,0,0,1-5.969-2.576,10.16,10.16,0,0,1-2.143-6.787v-1.062a11.486,11.486,0,0,1,.968-4.813,7.582,7.582,0,0,1,2.886-3.328,8.817,8.817,0,0,1,9.776.677,7.38,7.38,0,0,1,2.359,4.54,1.376,1.376,0,0,1-.329,1.128,1.427,1.427,0,0,1-1.081.508h-2.576a1.456,1.456,0,0,1-1.438-1.26,2.354,2.354,0,0,0-.6-1.438,2.623,2.623,0,0,0-1.8-.5,2.12,2.12,0,0,0-1.908.874,6.343,6.343,0,0,0-.743,3.45v1.307a6.686,6.686,0,0,0,.7,3.6,2.032,2.032,0,0,0,1.908.874,2.707,2.707,0,0,0,1.833-.5,2.3,2.3,0,0,0,.6-1.372,1.417,1.417,0,0,1,1.4-1.231h2.613A1.418,1.418,0,0,1,217.312,299.684Z" transform="translate(-201.67 -287.36)" fill="#fff"/>
      </g>
    </g>
  </g>
</svg>
