<svg xmlns="http://www.w3.org/2000/svg" viewBox="0 0 24 24"><path fill="#b4b7bb" d="M18.021,8.069H15.308l.7-2.078a2.8,2.8,0,0,0-2.653-3.7H11.944L10.7,5.987A3.375,3.375,0,0,1,9.445,7.694a3.08437,3.08437,0,0,1-.387.217,2.83235,2.83235,0,0,1-.291.118c-.041.014-1.055.028-1.1.04H4.044a.929.929,0,0,0-.929.929v9.036a.929.929,0,0,0,.929.929H9.158v-1.9a5.733,5.733,0,0,0,4.267,1.9h3.661A2.875,2.875,0,0,0,19.915,16.6l.931-5.144a2.875,2.875,0,0,0-2.825-3.387ZM7.658,17.463H4.615V9.569H7.658Zm11.717-6.274-.931,5.144a1.374,1.374,0,0,1-1.358,1.13H13.425a4.259,4.259,0,0,1-4.254-4.257V9.475l.087-.028a4.41482,4.41482,0,0,0,.438-.178,4.55922,4.55922,0,0,0,.576-.323,4.85294,4.85294,0,0,0,1.85-2.48l.9-2.671h.336a1.3,1.3,0,0,1,1.228,1.716l-.7,2.078-.669,1.98h4.8a1.375,1.375,0,0,1,1.353,1.62Z"/></svg>
