<svg xmlns="http://www.w3.org/2000/svg" viewBox="0 0 24 24"><path d="M20.626,19.946a.576.576,0,0,1-.223.271,16.32306,16.32306,0,0,1-8.4,2.056,16.272,16.272,0,0,1-8.4-2.056.555.555,0,0,1-.224-.271,6.60015,6.60015,0,0,1-.219-1.948v-.013a.93093.93093,0,0,0,0-.108c.026-.848.082-2.839,1.948-3.48l.043-.013A11.5811,11.5811,0,0,0,7.697,13.37a.59.59,0,0,1,.585.025,7.189,7.189,0,0,0,7.41,0,.59.59,0,0,1,.585-.025,11.7,11.7,0,0,0,2.557,1.019l.043.012c1.867.637,1.923,2.628,1.949,3.48v.121A6.91933,6.91933,0,0,1,20.626,19.946Zm-8.627-7.293A5.44,5.44,0,1,0,6.56,7.212v.001a5.439,5.439,0,0,0,5.439,5.439H12Z"/></svg>
