<svg xmlns="http://www.w3.org/2000/svg" width="76" height="67.77" viewBox="0 0 76 67.77">
  <path id="Subtraction_21" data-name="Subtraction 21" d="M5761.991,10114.769V10099H5743a5,5,0,0,1-5-5v-42a5,5,0,0,1,5-5h66a5.005,5.005,0,0,1,5,5v42a5,5,0,0,1-5,5h-17.517L5762,10114.767Zm24.991-51.607a7.958,7.958,0,0,0-4.309,1.164,7.542,7.542,0,0,0-2.885,3.322,11.546,11.546,0,0,0-.965,4.82v1.064a10.161,10.161,0,0,0,2.141,6.781,7.47,7.47,0,0,0,5.97,2.572,8.158,8.158,0,0,0,5.532-1.826,6.946,6.946,0,0,0,2.333-4.457,1.372,1.372,0,0,0-.339-1.117,1.4,1.4,0,0,0-1.077-.5h-2.612a1.411,1.411,0,0,0-1.4,1.234,2.321,2.321,0,0,1-.6,1.369,2.716,2.716,0,0,1-1.835.5,2.031,2.031,0,0,1-1.908-.871,6.714,6.714,0,0,1-.7-3.6v-1.309a6.273,6.273,0,0,1,.745-3.449,2.124,2.124,0,0,1,1.908-.871,2.617,2.617,0,0,1,1.8.5,2.325,2.325,0,0,1,.6,1.436,1.451,1.451,0,0,0,1.436,1.264h2.58a1.443,1.443,0,0,0,1.075-.51,1.371,1.371,0,0,0,.326-1.125,7.373,7.373,0,0,0-2.354-4.541A8.049,8.049,0,0,0,5786.982,10063.161Zm-21.614,0a8.038,8.038,0,0,0-4.314,1.164,7.489,7.489,0,0,0-2.878,3.322,11.431,11.431,0,0,0-.977,4.82v1.064a10.13,10.13,0,0,0,2.146,6.781,7.464,7.464,0,0,0,5.964,2.572,8.186,8.186,0,0,0,5.538-1.826,6.913,6.913,0,0,0,2.333-4.457,1.445,1.445,0,0,0-.326-1.117,1.427,1.427,0,0,0-1.084-.5h-2.612a1.42,1.42,0,0,0-1.4,1.234,2.356,2.356,0,0,1-.6,1.369,2.77,2.77,0,0,1-1.848.5,2.065,2.065,0,0,1-1.9-.871,6.712,6.712,0,0,1-.7-3.6v-1.309a6.456,6.456,0,0,1,.752-3.449,2.109,2.109,0,0,1,1.906-.871,2.638,2.638,0,0,1,1.8.5,2.426,2.426,0,0,1,.605,1.436,1.446,1.446,0,0,0,1.429,1.264h2.572a1.456,1.456,0,0,0,1.1-.51,1.44,1.44,0,0,0,.318-1.125,7.362,7.362,0,0,0-2.36-4.541A8.039,8.039,0,0,0,5765.368,10063.161Z" transform="translate(-5737.999 -10046.999)" fill="#fff"/>
</svg>
