<svg xmlns="http://www.w3.org/2000/svg" viewBox="0 0 24 24"><path d="M20.834,18.001V17.88c-.026-.852-.082-2.843-1.949-3.48l-.051-.011a11.69962,11.69962,0,0,1-2.548-1.017.555.555,0,0,0-.264-.066.62306.62306,0,0,0-.32.091,7.189,7.189,0,0,1-7.41,0,.62407.62407,0,0,0-.32-.091.56109.56109,0,0,0-.265.066,11.58061,11.58061,0,0,1-2.546,1.014l-.043.013c-1.866.641-1.922,2.632-1.948,3.48a.93093.93093,0,0,1,0,.108V18a6.60011,6.60011,0,0,0,.219,1.948.555.555,0,0,0,.224.271,16.272,16.272,0,0,0,8.4,2.056,16.32306,16.32306,0,0,0,8.4-2.056.57608.57608,0,0,0,.223-.271A6.91927,6.91927,0,0,0,20.834,18.001ZM19.28,19.133a15.717,15.717,0,0,1-7.273,1.64,15.69992,15.69992,0,0,1-7.281-1.646,7.81072,7.81072,0,0,1-.06-1.073c0-.062.005-.116.005-.157.041-1.284.29-1.852.9-2.074a12.5,12.5,0,0,0,2.385-.9,8.689,8.689,0,0,0,8.08,0,12.58287,12.58287,0,0,0,2.386.9c.617.225.864.793.9,2.082v.122a8.43474,8.43474,0,0,1-.043,1.106ZM12,12.652A5.44,5.44,0,1,0,6.561,7.211v.001a5.439,5.439,0,0,0,5.438,5.44Zm0-9.379A3.94,3.94,0,1,1,8.061,7.214V7.213A3.944,3.944,0,0,1,12,3.273Z"/></svg>
