<svg id="Group_1675" data-name="Group 1675"
  xmlns="http://www.w3.org/2000/svg" width="52.562" height="46.87" viewBox="0 0 52.562 46.87">
  <g id="Subtraction_16" data-name="Subtraction 16" transform="translate(0 0)" fill="none">
    <path d="M3.458,0H49.1a3.458,3.458,0,0,1,3.458,3.458V32.505A3.458,3.458,0,0,1,49.1,35.964H36.99L16.591,46.87V35.964H3.458A3.458,3.458,0,0,1,0,32.505V3.458A3.458,3.458,0,0,1,3.458,0Z" stroke="none"/>
    <path d="M 4.999992370605469 5 L 4.999992370605469 30.9636344909668 L 16.59096908569336 30.9636344909668 L 21.59097099304199 30.9636344909668 L 21.59097099304199 35.9636344909668 L 21.59097099304199 38.52689361572266 L 34.63297271728516 31.55424499511719 L 35.73767852783203 30.9636344909668 L 36.9903564453125 30.9636344909668 L 47.56186676025391 30.9636344909668 L 47.56186676025391 5 L 4.999992370605469 5 M 3.458194732666016 0 L 49.10409927368164 0 C 51.01387786865234 0 52.56186294555664 1.548000335693359 52.56186294555664 3.458198547363281 L 52.56186294555664 32.50543212890625 C 52.56186294555664 34.41563415527344 51.01387786865234 35.9636344909668 49.10409927368164 35.9636344909668 L 36.9903564453125 35.9636344909668 L 16.59096908569336 46.8697624206543 L 16.59096908569336 35.9636344909668 L 3.458194732666016 35.9636344909668 C 1.548427581787109 35.9636344909668 -7.62939453125e-06 34.41563415527344 -7.62939453125e-06 32.50543212890625 L -7.62939453125e-06 3.458198547363281 C -7.62939453125e-06 1.548000335693359 1.548427581787109 0 3.458194732666016 0 Z" stroke="none" fill="#fff"/>
  </g>
  <g id="Group_1672" data-name="Group 1672" transform="translate(13.279 11.175)">
    <g id="Group_1672-2" data-name="Group 1672" transform="translate(0 0)">
      <path id="Path_3013" data-name="Path 3013" d="M189,295.883a.984.984,0,0,1,.228.774,4.774,4.774,0,0,1-1.612,3.082,5.657,5.657,0,0,1-3.829,1.268,5.163,5.163,0,0,1-4.128-1.781,7.027,7.027,0,0,1-1.482-4.694V293.8a7.845,7.845,0,0,1,.676-3.329,5.19,5.19,0,0,1,1.989-2.3,6.1,6.1,0,0,1,6.761.468,5.072,5.072,0,0,1,1.632,3.14.971.971,0,0,1-.221.78.99.99,0,0,1-.754.351h-1.781a1,1,0,0,1-.988-.871,1.707,1.707,0,0,0-.416-.995,1.837,1.837,0,0,0-1.248-.345,1.452,1.452,0,0,0-1.32.6,4.439,4.439,0,0,0-.52,2.386v.9a4.6,4.6,0,0,0,.488,2.49,1.393,1.393,0,0,0,1.313.6,1.892,1.892,0,0,0,1.274-.345,1.634,1.634,0,0,0,.416-.949.98.98,0,0,1,.969-.852h1.807A.981.981,0,0,1,189,295.883Z" transform="translate(-178.18 -287.36)"/>
    </g>
    <g id="Group_1673" data-name="Group 1673" transform="translate(14.953 0)">
      <path id="Path_3014" data-name="Path 3014" d="M212.488,295.883a.965.965,0,0,1,.234.774,4.8,4.8,0,0,1-1.612,3.082,5.669,5.669,0,0,1-3.829,1.268,5.163,5.163,0,0,1-4.128-1.781,7.027,7.027,0,0,1-1.482-4.694V293.8a7.944,7.944,0,0,1,.67-3.329,5.244,5.244,0,0,1,2-2.3,6.1,6.1,0,0,1,6.761.468,5.1,5.1,0,0,1,1.632,3.14.952.952,0,0,1-.228.78.987.987,0,0,1-.748.351h-1.781a1.007,1.007,0,0,1-.995-.871,1.628,1.628,0,0,0-.416-.995,1.814,1.814,0,0,0-1.248-.345,1.466,1.466,0,0,0-1.32.6,4.387,4.387,0,0,0-.514,2.386v.9a4.623,4.623,0,0,0,.481,2.49,1.406,1.406,0,0,0,1.32.6,1.872,1.872,0,0,0,1.268-.345,1.594,1.594,0,0,0,.416-.949.98.98,0,0,1,.969-.852h1.807A.981.981,0,0,1,212.488,295.883Z" transform="translate(-201.67 -287.36)"/>
    </g>
  </g>
</svg>
