<svg xmlns="http://www.w3.org/2000/svg" viewBox="0 0 24 24"><path fill="#b4b7bb" d="M19.968,5.007H14.854v1.9a5.731,5.731,0,0,0-4.267-1.9H6.922A2.875,2.875,0,0,0,4.093,7.37l-.931,5.144a2.875,2.875,0,0,0,2.829,3.387H8.704l-.7,2.078a2.8,2.8,0,0,0,2.653,3.7H12.07l1.244-3.692A3.376,3.376,0,0,1,14.57,16.28a3.04209,3.04209,0,0,1,.386-.217,3.07919,3.07919,0,0,1,.291-.118c.042-.014,1.055-.028,1.1-.04h3.627a.929.929,0,0,0,.929-.929h0V5.936a.928.928,0,0,0-.927-.929Zm-5.127,9.485-.086.028a4.622,4.622,0,0,0-.439.178,4.55852,4.55852,0,0,0-.576.323,4.85806,4.85806,0,0,0-1.854,2.483l-.9,2.671h-.335a1.3,1.3,0,0,1-1.232-1.716l.7-2.078.669-1.98h-4.8a1.375,1.375,0,0,1-1.353-1.62l.931-5.144a1.374,1.374,0,0,1,1.353-1.13h3.667a4.258,4.258,0,0,1,4.254,4.254Zm4.556-.094H16.354V6.507h3.043Z"/></svg>
