<svg xmlns="http://www.w3.org/2000/svg" width="22.99" height="19.36" viewBox="0 0 22.99 19.36">
  <path id="Path_12908" data-name="Path 12908" d="M18.5,5.31a4.85,4.85,0,0,1,2.317.58A4.616,4.616,0,0,1,23.273,9.93a4.4,4.4,0,0,1-.232,1.406l-.028.082-.018.084c-.64,2.8-5.825,7.006-9.491,9.4-3.668-2.4-8.856-6.6-9.494-9.4l-.02-.085-.028-.082A4.411,4.411,0,0,1,3.731,9.93,4.609,4.609,0,0,1,6.18,5.894,4.886,4.886,0,0,1,12.192,7l1.315,1.546L14.819,7A4.807,4.807,0,0,1,18.5,5.31m0-1.724a6.535,6.535,0,0,0-5,2.3,6.61,6.61,0,0,0-8.14-1.508A6.325,6.325,0,0,0,2.007,9.93a6.111,6.111,0,0,0,.321,1.955C3.443,16.777,13.5,22.946,13.5,22.946s10.055-6.168,11.171-11.061A6.112,6.112,0,0,0,25,9.93a6.327,6.327,0,0,0-3.358-5.556A6.613,6.613,0,0,0,18.5,3.586Z" transform="translate(-2.007 -3.586)" fill="#fff"/>
</svg>
