<svg xmlns="http://www.w3.org/2000/svg" width="77" height="65.086" viewBox="0 0 77 65.086">
  <path id="Path_3107" data-name="Path 3107" d="M66.907,6.193A21.862,21.862,0,0,0,56.533,3.586a21.6,21.6,0,0,0-16.519,7.592A21.851,21.851,0,0,0,13.107,6.193a20.908,20.908,0,0,0-11.1,18.365,20.2,20.2,0,0,0,1.06,6.464C6.753,47.191,40.015,67.585,40.015,67.585S73.253,47.195,76.943,31.022a20.2,20.2,0,0,0,1.064-6.464A20.917,20.917,0,0,0,66.907,6.193Z" transform="translate(-1.507 -3.086)" fill="#fff" stroke="rgba(0,0,0,0)" stroke-width="1" opacity="0.999"/>
</svg>
