<svg xmlns="http://www.w3.org/2000/svg" viewBox="0 0 24 24"><path d="M18.89844,18.8938a9.755,9.755,0,0,0,0-13.77808L19.957,4.05762a11.24471,11.24471,0,0,1,0,15.8999ZM4.05469,4.05688,5.11621,5.115a9.755,9.755,0,0,0,0,13.77808l-1.06152,1.062A11.25684,11.25684,0,0,1,4.05469,4.05688Zm12.58984,12.565a6.61819,6.61819,0,0,0,0-9.342L17.70312,6.2207a8.11053,8.11053,0,0,1,0,11.46314ZM3.87109,11.94873a8.04639,8.04639,0,0,1,2.37207-5.728L7.30664,7.27979a6.60874,6.60874,0,0,0,0,9.342l-1.06152,1.062A8.05181,8.05181,0,0,1,3.86719,11.949Zm5.12989.051A2.99988,2.99988,0,1,1,9.001,12Z"/></svg>
