<svg xmlns="http://www.w3.org/2000/svg" viewBox="0 0 24 24"><path d="M9.523,9.844a2.476,2.476,0,1,1,2.476,2.476h0A2.476,2.476,0,0,1,9.523,9.844Zm5.609,3.267-.019-.006a5.28688,5.28688,0,0,1-1.16-.462.269.269,0,0,0-.266.011,3.273,3.273,0,0,1-3.373,0,.269.269,0,0,0-.267-.011,5.26814,5.26814,0,0,1-1.159.461l-.019.006a1.353,1.353,0,0,0-.866,1.257,4.646,4.646,0,0,0,8,.029A1.362,1.362,0,0,0,15.132,13.111ZM19.96,4.056,18.897,5.117a9.756,9.756,0,0,1,0,13.782l1.061,1.06a11.4523,11.4523,0,0,0,0-15.903ZM17.708,6.222,16.647,7.283a6.612,6.612,0,0,1,0,9.341l1.061,1.061a8.111,8.111,0,0,0,0-11.462ZM5.116,5.117,4.056,4.056a11.257,11.257,0,0,0,0,15.9l1.061-1.06A9.756,9.756,0,0,1,5.116,5.117ZM6.243,6.222a8.112,8.112,0,0,0,0,11.462l1.06-1.061a6.613,6.613,0,0,1,0-9.341Z"/></svg>
