<svg xmlns="http://www.w3.org/2000/svg" viewBox="0 0 24 24"><path fill="#b4b7bb" d="M12.007,7.272a4.736,4.736,0,1,0,4.736,4.736h0A4.736,4.736,0,0,0,12.007,7.272Zm0,7.972a3.236,3.236,0,1,1,.68-6.4,1.763,1.763,0,0,0,2.483,2.483,3.231,3.231,0,0,1-3.163,3.916Zm10.345-3.816A12.113,12.113,0,0,0,12.007,5.183,12.113,12.113,0,0,0,1.662,11.428a1.164,1.164,0,0,0,0,1.16,12.113,12.113,0,0,0,10.345,6.245,12.113,12.113,0,0,0,10.345-6.245A1.164,1.164,0,0,0,22.352,11.428ZM12.007,17.333a10.539,10.539,0,0,1-8.944-5.325,10.538,10.538,0,0,1,8.945-5.325,10.538,10.538,0,0,1,8.945,5.325A10.539,10.539,0,0,1,12.007,17.333Z"/></svg>
