<svg xmlns="http://www.w3.org/2000/svg" viewBox="0 0 40 40">
  <path
    fill="#52CD65"
    d="M0,16.6V.56A.56.56,0,0,1,.56,0H2.153a.56.56,0,0,1,.56.56V16.6a.56.56,0,0,1-.56.56H.56A.56.56,0,0,1,0,16.6Zm3.9-2.555a5.787,5.787,0,0,1-.468-2.361A5.787,5.787,0,0,1,3.9,9.324,5.518,5.518,0,0,1,5.168,7.51,5.58,5.58,0,0,1,7.062,6.347a6.8,6.8,0,0,1,4.654,0A5.58294,5.58294,0,0,1,13.609,7.51a5.525,5.525,0,0,1,1.266,1.814,5.8,5.8,0,0,1,.468,2.361,5.8,5.8,0,0,1-.468,2.361,5.52786,5.52786,0,0,1-1.266,1.814,5.58492,5.58492,0,0,1-1.893,1.163,6.8,6.8,0,0,1-4.654,0A5.58294,5.58294,0,0,1,5.169,15.86,5.52113,5.52113,0,0,1,3.9,14.046Zm2.27-2.361a3.552,3.552,0,0,0,.217,1.232,3.078,3.078,0,0,0,.639,1.049,3.236,3.236,0,0,0,4.574.148q.07638-.07159.148-.148a3.09991,3.09991,0,0,0,.639-1.049,3.61005,3.61005,0,0,0,0-2.464A3.105,3.105,0,0,0,11.749,9.4a3.236,3.236,0,0,0-4.574-.148q-.07638.0716-.148.148a3.085,3.085,0,0,0-.639,1.049,3.55509,3.55509,0,0,0-.216,1.236Zm11.542,4.175a5.58,5.58,0,0,0,1.893,1.163,6.57193,6.57193,0,0,0,2.327.411,5.64021,5.64021,0,0,0,.867-.08,6.66233,6.66233,0,0,0,1.049-.262,6.44384,6.44384,0,0,0,1.083-.479,4.41609,4.41609,0,0,0,.47-.3.56.56,0,0,0,.08-.834l-1.023-1.1a.557.557,0,0,0-.772-.046,2.51544,2.51544,0,0,1-.569.374,2.70893,2.70893,0,0,1-1.186.262,3.126,3.126,0,0,1-2.361-1,3.08089,3.08089,0,0,1-.639-1.049,3.60993,3.60993,0,0,1,0-2.464A3.08884,3.08884,0,0,1,19.573,9.4a3.126,3.126,0,0,1,2.361-1,2.158,2.158,0,0,1,1.072.3,4.04142,4.04142,0,0,1,.629.443.561.561,0,0,0,.76-.029L25.5,8a.561.561,0,0,0-.00182-.79337Q25.48267,7.1912,25.466,7.177a4.726,4.726,0,0,0-1.424-.845,5.96213,5.96213,0,0,0-2.11-.4,6.57011,6.57011,0,0,0-2.327.411A5.57693,5.57693,0,0,0,17.714,7.51a5.51,5.51,0,0,0-1.266,1.814,5.788,5.788,0,0,0-.468,2.361,5.788,5.788,0,0,0,.468,2.361,5.51312,5.51312,0,0,0,1.266,1.813Zm9.014-.274a2.912,2.912,0,0,1-.342-1.437,3.31091,3.31091,0,0,1,.319-1.517,3.116,3.116,0,0,1,.856-1.049A4.34109,4.34109,0,0,1,28.8,10.91a8.53168,8.53168,0,0,1,1.471-.375,13.0991,13.0991,0,0,1,1.54-.158c.517-.023,1-.03,1.46-.03h.731v-.3a1.8,1.8,0,0,0-.731-1.54,3.066,3.066,0,0,0-1.826-.513A4.238,4.238,0,0,0,28.9,8.82a.559.559,0,0,1-.729-.054l-.661-.661a.559.559,0,0,1-.002-.79054q.01909-.01919.04-.03646a5.268,5.268,0,0,1,1.683-.932,7.848,7.848,0,0,1,2.52-.411,6.354,6.354,0,0,1,1.961.262,4.31306,4.31306,0,0,1,1.322.673,2.97093,2.97093,0,0,1,.807.947A4.38183,4.38183,0,0,1,36.243,8.9a5.958,5.958,0,0,1,.148,1.061c.015.342.013.643.013.9V16.6a.56.56,0,0,1-.56.56H34.566a.56.56,0,0,1-.56-.56h0v-.89h-.115a3.412,3.412,0,0,1-1.506,1.329,4.71314,4.71314,0,0,1-2.007.394,5.33312,5.33312,0,0,1-1.471-.205,3.985,3.985,0,0,1-1.277-.616,3.158,3.158,0,0,1-.902-1.027Zm2.4-1.642a1.165,1.165,0,0,0,.172.65,1.547,1.547,0,0,0,.445.445,1.861,1.861,0,0,0,.617.262,3.0001,3.0001,0,0,0,.687.08,2.858,2.858,0,0,0,2.092-.673,2.487,2.487,0,0,0,.681-1.836V12.8a.56.56,0,0,0-.56-.56h-.03c-.38,0-.806.023-1.278.053a6.71891,6.71891,0,0,0-1.334.224,3.0532,3.0532,0,0,0-1.061.5,1.1,1.1,0,0,0-.433.926ZM39.44,0H37.721a.56.56,0,0,0-.56.56h0V16.6a.56.56,0,0,0,.56.56H39.44A.56.56,0,0,0,40,16.6h0V.56A.56.56,0,0,0,39.44,0ZM36.507,28.959H34.4a.56.56,0,0,1-.53-.378l-2.659-7.76h-.049l-2.351,7.741a.56.56,0,0,1-.536.4H26.052a.56.56,0,0,1-.529-.378l-2.082-6.039h0q.019.235.019.475a6.3,6.3,0,0,1-6.429,6.157,6.332,6.332,0,0,1-6.4-5.545h-.032V28.4a.56.56,0,0,1-.56.56H8.094a.56.56,0,0,1-.56-.56V21.85h0v-.132a2.2725,2.2725,0,0,0-4.545,0v.132h0V28.4a.56.56,0,0,1-.56.56H.56a.56.56,0,0,0-.56.56v9.92A.56.56,0,0,0,.56,40H39.44a.56.56,0,0,0,.56-.56h0V19.9l-2.963,8.68A.56.56,0,0,1,36.507,28.959ZM14.54,20.521a3.309,3.309,0,0,0-.685,1.126,3.81284,3.81284,0,0,0-.233,1.321,3.91887,3.91887,0,0,0,.026.442,3.78307,3.78307,0,0,0,.207.88,3.30009,3.30009,0,0,0,.685,1.125,3.471,3.471,0,0,0,4.90617.15883q.082-.07683.15883-.15883a3.32205,3.32205,0,0,0,.685-1.125,3.822,3.822,0,0,0,.232-1.321v-.106a3.81692,3.81692,0,0,0-.23-1.215,3.32983,3.32983,0,0,0-.685-1.126,3.47,3.47,0,0,0-4.9047-.1603q-.08275.07751-.1603.1603Zm10.929-.346,1.7,5.314,1.7-5.314a.56.56,0,0,0-.533-.73H26a.56.56,0,0,0-.531.73Zm8.815-.73a.56.56,0,0,0-.534.73l1.7,5.314,1.7-5.314a.56.56,0,0,0-.534-.73Z"
  />
</svg>
