<svg width="60px" height="81px" viewBox="0 0 60 81" version="1.1" xmlns="http://www.w3.org/2000/svg" xmlns:xlink="http://www.w3.org/1999/xlink">
  <g id="10ft-3.0" stroke="none" stroke-width="1" fill="none" fill-rule="evenodd">
    <g id="10ft/8.1-Change-Local-Feed---1-location-only" transform="translate(-1347.000000, -459.000000)">
      <g id="Group-2" transform="translate(1132.000000, 411.000000)">
        <g id="Empty-State-Icon" transform="translate(110.000000, 48.000000)">
          <g id="Group" transform="translate(105.000000, 0.000000)">
            <path d="M27.0319149,41.1484685 C19.3090235,41.1484685 13.0474138,34.8666995 13.0474138,27.1189442 C13.0474138,19.3747909 19.3090235,13.093022 27.0319149,13.093022 C34.7512159,13.093022 41.0128256,19.3747909 41.0128256,27.1189442 C41.0128256,34.8666995 34.7512159,41.1484685 27.0319149,41.1484685 M27.0319149,0 C41.9606839,0 54.0638298,12.142112 54.0638298,27.1189442 C54.0638298,31.7890788 51.4366682,38.7402198 47.8203747,46.0962864 C47.5863663,46.0857214 47.3507368,46.0805917 47.1139138,46.0805917 C38.2158482,46.0805917 31.0025407,53.3223117 31.0025407,62.2554261 C31.0025407,65.4293657 31.9131372,68.3897864 33.4863605,70.8877418 C29.7615656,76.6673018 27.0319149,80.55 27.0319149,80.55 C27.0319149,80.55 0,42.0993784 0,27.1189442 C0,12.142112 12.0995555,0 27.0319149,0 Z" id="Combined-Shape" fill="#C0C0C0" opacity="0.5"></path>
            <g id="Add-Icon" transform="translate(34.340426, 49.435714)">
              <ellipse id="Oval" fill-opacity="0.5" fill="#C0C0C0" cx="12.7734883" cy="12.8197118" rx="12.4468085" ry="12.4958354"></ellipse>
              <path d="M13.7007752,13.0808398 L17.612443,17.0202705 C17.7798499,17.1888655 17.7780911,17.4638876 17.6090564,17.6340044 L17.5090879,17.7346128 C17.3398106,17.9049737 17.0623673,17.9018497 16.8995028,17.7378102 L12.9882923,13.7983795 L9.07662443,17.7378102 C8.90921758,17.9064052 8.63613364,17.9047296 8.46721574,17.7346128 L8.36731637,17.6340044 C8.1981561,17.4636435 8.20124164,17.18431 8.36410609,17.0202705 L12.2753166,13.0808398 L8.36410609,9.14140908 C8.19671881,8.97281406 8.19839847,8.69779192 8.36731637,8.52767514 L8.46721574,8.42706673 C8.63637601,8.25670586 8.91374094,8.25982981 9.07662443,8.42386936 L12.9882923,12.3633001 L16.8718959,8.45167549 C17.0545301,8.26772357 17.3537881,8.2707728 17.5423672,8.46055907 L17.575777,8.4941828 C17.763434,8.68304098 17.7655535,8.98721188 17.5848328,9.1692152 L13.7007752,13.0808398 Z" id="close-[#1511]" stroke="#000000" stroke-width="0.881889846" fill="#000000" transform="translate(12.988068, 13.080840) rotate(45.000000) translate(-12.988068, -13.080840) "></path>
            </g>
          </g>
        </g>
      </g>
    </g>
  </g>
</svg>
