
<svg width="58px" height="35px" viewBox="0 0 58 35" version="1.1" xmlns="http://www.w3.org/2000/svg" xmlns:xlink="http://www.w3.org/1999/xlink">
  <defs>
    <path d="M12.450627,0.403059151 C13.193091,1.02006833 13.2957697,2.12331764 12.6799664,2.86723545 C9.35870652,6.87946493 7.49315068,12.0331492 7.49315068,17.5040624 C7.49315068,22.9711987 9.35639301,28.121677 12.6741055,32.1333856 C13.2895663,32.8775879 13.1863797,33.9807896 12.4436317,34.5974556 C11.7008838,35.2141216 10.599838,35.1107329 9.98437722,34.3665305 C6.14878617,29.7286141 4,23.7888195 4,17.5040624 C4,11.2150142 6.15146125,5.27150289 9.9912665,0.63284756 C10.6070699,-0.111070252 11.7081631,-0.213950027 12.450627,0.403059151 Z M49.008796,0.632923054 C52.8484223,5.27189125 55,11.215418 55,17.5040624 C55,23.7884155 52.8510971,29.7282253 49.0156845,34.366455 C48.4002653,35.1106919 47.2992253,35.2141424 46.5564429,34.5975182 C45.8136605,33.9808939 45.7104122,32.877698 46.3258314,32.1334611 C49.6434781,28.1213744 51.5068493,22.9708063 51.5068493,17.5040624 C51.5068493,12.0335413 49.6411648,6.87976706 46.3199711,2.86715996 C45.7042094,2.12320756 45.8069498,1.01996402 46.5494483,0.40299654 C47.2919468,-0.213970945 48.3930342,-0.111029338 49.008796,0.632923054 Z M18.7457359,6.71416383 C19.4820697,7.33850438 19.5738473,8.44271774 18.9507269,9.18049339 C16.9679334,11.5281244 15.8767123,14.4162623 15.8767123,17.4605915 C15.8767123,20.8170507 17.2055379,23.9818475 19.5759759,26.4319182 C20.2473742,27.1258716 20.2301892,28.2337736 19.537592,28.9064866 C18.8449949,29.5791996 17.7392581,29.5619809 17.0678597,28.8680275 C14.0768683,25.7765564 12.3835616,21.7436935 12.3835616,17.4605915 C12.3835616,13.5746768 13.7760039,9.88929599 16.2842263,6.91955624 C16.9073467,6.18178059 18.0094021,6.08982327 18.7457359,6.71416383 Z M42.715955,6.91977092 C45.2238069,9.89003981 46.6164384,13.5753741 46.6164384,17.4605915 C46.6164384,21.7436935 44.9231317,25.7765564 41.9321403,28.8680275 C41.2607419,29.5619809 40.1550051,29.5791996 39.462408,28.9064866 C38.7698108,28.2337736 38.7526258,27.1258716 39.4240241,26.4319182 C41.7944621,23.9818475 43.1232877,20.8170507 43.1232877,17.4605915 C43.1232877,14.4169357 42.031836,11.5286165 40.0490918,9.1802787 C39.4260897,8.44240273 39.5180444,7.33820417 40.2544783,6.71398218 C40.9909123,6.08976019 42.0929529,6.18189495 42.715955,6.91977092 Z M29.5,10.8500174 C33.1652437,10.8500174 36.1369863,13.8275791 36.1369863,17.4999998 C36.1369863,21.1729882 33.1652437,24.1499822 29.5,24.1499822 C25.8341897,24.1499822 22.8630137,21.1729882 22.8630137,17.4999998 C22.8630137,13.8275791 25.8341897,10.8500174 29.5,10.8500174 Z" id="path-1"></path>
  </defs>
  <g id="Symbols" stroke="none" stroke-width="1" fill="none" fill-rule="evenodd">
    <g id="Icons/Live">
      <mask id="mask-2" fill="white">
        <use xlink:href="#path-1"></use>
      </mask>
      <use id="Combined-Shape" fill="#1A1919" fill-rule="nonzero" xlink:href="#path-1"></use>
      <g id="Colour-Black" mask="url(#mask-2)" fill="#2C2C2C">
        <g transform="translate(-11.000000, -22.000000)" id="Green">
          <rect x="0" y="0" width="78.4662162" height="78.4662162"></rect>
        </g>
      </g>
    </g>
  </g>
</svg>
