
<svg width="355px" height="86px" viewBox="0 0 355 86" version="1.1" xmlns="http://www.w3.org/2000/svg" xmlns:xlink="http://www.w3.org/1999/xlink">
  <g id="10ft-3.0" stroke="none" stroke-width="1" fill="none" fill-rule="evenodd">
    <g id="10ft/2.0-Info-Overlay" transform="translate(-994.000000, -694.000000)">
      <g id="Button---Focused" transform="translate(994.000000, 694.000000)">
        <rect id="Card-bg" stroke="#F1F1F1" stroke-width="3.24" fill="#F1F1F1" transform="translate(177.500000, 43.000000) scale(1, -1) translate(-177.500000, -43.000000) " x="1.62" y="1.62" width="351.76" height="82.76"></rect>
        <path d="M155.63698,43.9960531 L132.961554,60.566557 C132.411449,60.9685568 131.639615,60.8484938 131.237616,60.2983889 C131.083215,60.0871034 131,59.8321931 131,59.5705039 L131,26.4294961 C131,25.7481597 131.552332,25.1958275 132.233669,25.1958275 C132.495358,25.1958275 132.750268,25.2790421 132.961554,25.433443 L155.63698,42.0039469 C156.187085,42.4059467 156.307148,43.17778 155.905148,43.727885 C155.830115,43.8305619 155.739657,43.9210199 155.63698,43.9960531 Z" id="Triangle" fill="#2AAD79"></path>
      </g>
    </g>
  </g>
</svg>
