
<svg width="35px" height="35px" viewBox="0 0 35 35" version="1.1" xmlns="http://www.w3.org/2000/svg" xmlns:xlink="http://www.w3.org/1999/xlink">
  <defs>
    <path d="M17.5,23.5869565 C14.143468,23.5869565 11.4130435,20.856532 11.4130435,17.5 C11.4130435,14.143468 14.143468,11.4130435 17.5,11.4130435 C20.856532,11.4130435 23.5869565,14.143468 23.5869565,17.5 C23.5869565,20.856532 20.856532,23.5869565 17.5,23.5869565 Z M30.8713531,19.2147804 C30.9435227,18.6549868 30.9971872,18.0951932 30.9971872,17.5 C30.9971872,16.9048068 30.9435227,16.3450132 30.8713531,15.7852196 L34.6673474,12.8974526 C35.0090733,12.6352556 35.099131,12.162461 34.8832392,11.7778654 L31.2852485,5.7227346 C31.0693567,5.337539 30.5832918,5.1977406 30.1872846,5.337539 L25.7078387,7.087719 C24.772102,6.387527 23.7648127,5.8103336 22.6674656,5.3723386 L21.9840139,0.7349916 C21.9297326,0.3149964 21.5516135,0 21.1019418,0 L13.9059604,0 C13.4562887,0 13.0781697,0.3149964 13.0238883,0.7349916 L12.3404366,5.3723386 C11.2430896,5.8103336 10.2358002,6.4049268 9.30006359,7.087719 L4.82061763,5.337539 C4.40672225,5.1803408 3.93854551,5.337539 3.72265373,5.7227346 L0.124663055,11.7778654 C-0.109116898,12.162461 -0.00117100957,12.6352556 0.340554832,12.8974526 L4.13654911,15.7852196 C4.06437957,16.3450132 4.01071505,16.9222066 4.01071505,17.5 C4.01071505,18.0777934 4.06437957,18.6549868 4.13654911,19.2147804 L0.340554832,22.1025474 C-0.00117100957,22.3647444 -0.0912287224,22.837539 0.124663055,23.2221346 L3.72265373,29.2772654 C3.93854551,29.662461 4.42461042,29.8022594 4.82061763,29.662461 L9.30006359,27.912281 C10.2358002,28.612473 11.2430896,29.1896664 12.3404366,29.6276614 L13.0238883,34.2644084 C13.0781697,34.6850036 13.4562887,35 13.9059604,35 L21.1019418,35 C21.5516135,35 21.9297326,34.6850036 21.9840139,34.2644084 L22.6674656,29.6276614 C23.7648127,29.1896664 24.772102,28.5950732 25.7078387,27.912281 L30.1872846,29.662461 C30.60118,29.8196592 31.0693567,29.662461 31.2852485,29.2772654 L34.8832392,23.2221346 C35.099131,22.837539 35.0090733,22.3647444 34.6673474,22.1025474 L30.8713531,19.2147804 Z" id="path-1"></path>
  </defs>
  <g id="Symbols" stroke="none" stroke-width="1" fill="none" fill-rule="evenodd">
    <g id="Icons/Settings">
      <mask id="mask-2" fill="white">
        <use xlink:href="#path-1"></use>
      </mask>
      <use id="Settings" fill="#2C2C2C" xlink:href="#path-1"></use>
    </g>
  </g>
</svg>
